# xmcd CD database file
#
# Track frame offsets:
#	150
#	16834
#	37454
#	48440
#	67771
#	93309
#	111539
#	138505
#	154318
#	176066
#	187435
#	209741
#	231225
#	246697
#	271587
#
# Disc length: 3887 seconds
#
# Revision: 0
# Processed by: cddbd v1.5.2PL0 Copyright (c) Steve Scherf et al.
# Submitted via: CDex 1.51
#
DISCID=eb0f2d0f
DTITLE=The West Coast Resonators - Practice Makes Pefretc
DYEAR=2003
DGENRE=Blues
TTITLE0=Big Boss Man
TTITLE1=Down Home Girl
TTITLE2=Fannie Mae
TTITLE3=Hands and Knees
TTITLE4=How Long
TTITLE5=Jam - Liquid Blues
TTITLE6=Jelly - Jelly
TTITLE7=Little Red Rooster
TTITLE8=Good Morning Little School Girl
TTITLE9=My Babe
TTITLE10=No Scruples
TTITLE11=Railroad Work Song
TTITLE12=So Fine
TTITLE13=Walkin' Blues
TTITLE14=Wrong Track
EXTD=YEAR: 2003
EXTT0=
EXTT1=
EXTT2=
EXTT3=
EXTT4=
EXTT5=
EXTT6=
EXTT7=
EXTT8=
EXTT9=
EXTT10=
EXTT11=
EXTT12=
EXTT13=
EXTT14=
PLAYORDER=
